<?xml version="1.0" standalone="no"?>
<!DOCTYPE svg PUBLIC "-//W3C//DTD SVG 20010904//EN"
 "http://www.w3.org/TR/2001/REC-SVG-20010904/DTD/svg10.dtd">
<svg version="1.0" xmlns="http://www.w3.org/2000/svg"
 width="1274.000000pt" height="141.000000pt" viewBox="0 0 1274.000000 141.000000"
 preserveAspectRatio="xMidYMid meet">

<g transform="translate(0.000000,141.000000) scale(0.100000,-0.100000)"
fill="#000000" stroke="none">
<path d="M595 1381 c-11 -5 -29 -19 -40 -31 -19 -21 -20 -36 -20 -271 l0 -249
28 -27 27 -28 250 0 250 0 27 28 28 27 0 250 0 250 -28 27 -27 28 -238 2
c-130 1 -246 -2 -257 -6z m315 -70 c39 -28 62 -76 62 -129 0 -53 -28 -118 -94
-215 l-40 -59 -45 67 c-95 141 -111 208 -70 285 40 76 121 98 187 51z m-127
-356 c26 -41 51 -75 55 -75 4 0 29 34 56 75 47 72 50 75 87 75 l39 0 0 -99 0
-98 -76 -6 c-82 -7 -124 4 -158 42 -16 18 -30 21 -88 21 l-68 0 0 70 0 70 53
0 52 0 48 -75z"/>
<path d="M793 1265 c-92 -39 -58 -185 42 -185 82 0 126 103 70 164 -13 14 -30
26 -37 27 -7 0 -20 2 -29 4 -8 1 -29 -3 -46 -10z"/>
<path d="M788 614 c-57 -30 -66 -104 -20 -155 61 -68 172 -23 172 69 -1 79
-81 125 -152 86z"/>
<path d="M120 195 c0 -60 3 -75 15 -75 9 0 15 9 15 23 0 16 9 26 30 34 24 9
30 17 30 40 0 38 -16 53 -57 53 l-33 0 0 -75z m60 25 c0 -11 -7 -20 -15 -20
-8 0 -15 9 -15 20 0 11 7 20 15 20 8 0 15 -9 15 -20z"/>
<path d="M250 195 c0 -60 3 -75 15 -75 10 0 15 10 15 26 l0 27 21 -27 c11 -14
30 -26 41 -26 21 0 21 0 -2 25 -18 20 -21 28 -12 37 15 15 15 61 0 76 -7 7
-27 12 -45 12 l-33 0 0 -75z m60 25 c0 -11 -7 -20 -15 -20 -8 0 -15 9 -15 20
0 11 7 20 15 20 8 0 15 -9 15 -20z"/>
<path d="M410 257 c-33 -16 -47 -58 -32 -92 33 -71 142 -50 142 28 0 38 -7 50
-37 66 -28 14 -42 14 -73 -2z m68 -29 c7 -7 12 -21 12 -33 0 -47 -62 -63 -81
-21 -22 47 33 90 69 54z"/>
<path d="M590 210 c0 -51 -3 -59 -17 -57 -23 3 -29 -15 -9 -28 11 -7 22 -6 34
1 24 15 31 144 7 144 -12 0 -15 -13 -15 -60z"/>
<path d="M650 195 l0 -75 45 0 c33 0 45 4 45 15 0 10 -10 15 -30 15 -20 0 -30
5 -30 15 0 10 10 15 30 15 20 0 30 5 30 15 0 10 -10 15 -30 15 -20 0 -30 5
-30 15 0 10 10 15 30 15 20 0 30 5 30 15 0 11 -12 15 -45 15 l-45 0 0 -75z"/>
<path d="M801 257 c-74 -37 -27 -153 53 -133 40 10 33 33 -8 28 -43 -5 -65 25
-47 65 10 21 17 24 46 21 36 -4 50 14 19 26 -23 9 -36 7 -63 -7z"/>
<path d="M900 255 c0 -8 7 -15 15 -15 12 0 15 -13 15 -60 0 -47 3 -60 15 -60
12 0 15 13 15 60 0 53 2 60 20 60 11 0 20 7 20 15 0 11 -12 15 -50 15 -38 0
-50 -4 -50 -15z"/>
<path d="M1070 255 c0 -8 9 -15 20 -15 18 0 20 -7 20 -60 0 -47 3 -60 15 -60
12 0 15 13 15 60 0 47 3 60 15 60 8 0 15 7 15 15 0 11 -12 15 -50 15 -38 0
-50 -4 -50 -15z"/>
<path d="M1190 265 c0 -2 9 -19 20 -37 11 -18 20 -50 20 -70 0 -27 4 -38 15
-38 10 0 15 10 15 31 0 17 12 50 26 75 21 35 23 44 11 44 -9 0 -23 -10 -32
-22 l-16 -23 -16 23 c-13 19 -43 31 -43 17z"/>
<path d="M1340 195 c0 -60 3 -75 15 -75 9 0 15 9 15 23 0 16 9 26 30 34 24 9
30 17 30 40 0 38 -16 53 -57 53 l-33 0 0 -75z m60 25 c0 -11 -7 -20 -15 -20
-8 0 -15 9 -15 20 0 11 7 20 15 20 8 0 15 -9 15 -20z"/>
<path d="M1460 195 l0 -75 45 0 c33 0 45 4 45 15 0 10 -10 15 -30 15 -20 0
-30 5 -30 15 0 10 10 15 30 15 20 0 30 5 30 15 0 10 -10 15 -30 15 -20 0 -30
5 -30 15 0 10 10 15 30 15 20 0 30 5 30 15 0 11 -12 15 -45 15 l-45 0 0 -75z"/>
</g>
</svg>
